<svg xmlns="http://www.w3.org/2000/svg" xmlns:xlink="http://www.w3.org/1999/xlink" width="1080" zoomAndPan="magnify" viewBox="0 0 810 809.999993" height="1080" preserveAspectRatio="xMidYMid meet" version="1.0"><defs><clipPath id="5b29362449"><path d="M 136.992188 37 L 673.242188 37 L 673.242188 774.71875 L 136.992188 774.71875 Z M 136.992188 37 " clip-rule="nonzero"/></clipPath></defs><g clip-path="url(#5b29362449)"><path fill="#ffffff" d="M 637.15625 321.25 C 635.734375 322.957031 634.597656 324.949219 633.742188 326.941406 C 632.035156 328.363281 630.613281 329.785156 628.90625 331.492188 C 631.183594 326.941406 633.460938 322.386719 635.734375 317.550781 C 640.570312 306.171875 643.984375 294.507812 646.261719 282.273438 C 649.960938 277.152344 652.523438 271.460938 653.945312 265.203125 C 655.9375 254.960938 654.230469 243.863281 648.824219 234.757812 C 641.140625 248.984375 639.148438 266.054688 643.417969 281.703125 C 642.5625 286.253906 641.710938 290.808594 640.570312 295.074219 C 640.289062 292.515625 639.71875 289.953125 638.863281 287.394531 C 639.148438 273.453125 633.460938 259.226562 623.21875 249.554688 C 623.21875 257.804688 623.21875 266.054688 625.777344 273.738281 C 627.199219 277.71875 629.191406 281.417969 632.035156 284.265625 C 633.175781 285.6875 635.167969 287.960938 637.15625 288.53125 C 638.582031 293.082031 639.148438 298.203125 638.296875 303.042969 C 636.875 307.59375 635.167969 312.144531 633.175781 316.414062 C 629.761719 324.09375 625.777344 331.777344 621.792969 339.175781 C 620.085938 342.304688 618.378906 345.433594 616.671875 348.847656 C 620.371094 331.777344 620.371094 313 617.242188 294.789062 C 610.699219 258.089844 612.976562 220.535156 623.5 187.246094 C 625.207031 185.253906 626.632812 183.261719 627.769531 181.269531 C 635.449219 168.46875 640.570312 154.242188 642.847656 139.449219 C 631.753906 143.714844 624.640625 155.382812 622.078125 167.046875 C 620.941406 173.019531 620.65625 179.28125 621.226562 185.253906 C 619.519531 190.660156 618.097656 195.78125 616.671875 201.472656 C 616.390625 196.066406 615.820312 189.808594 615.535156 182.976562 C 614.964844 173.589844 614.113281 162.777344 613.542969 151.96875 C 616.390625 147.414062 618.378906 142.292969 618.949219 137.171875 C 620.085938 128.351562 617.527344 119.53125 612.691406 112.136719 C 609.277344 119.25 605.578125 126.929688 605.007812 134.894531 C 604.4375 141.15625 606.429688 148.269531 610.699219 152.820312 C 610.984375 161.355469 611.550781 169.605469 612.121094 177.289062 C 610.984375 175.011719 609.5625 173.019531 608.136719 170.746094 C 607.851562 165.90625 607.285156 161.070312 605.863281 156.519531 C 603.015625 148.269531 596.757812 140.300781 587.9375 138.59375 C 586.800781 146.847656 589.359375 155.664062 594.480469 162.210938 C 597.609375 166.191406 601.59375 169.320312 606.144531 171.3125 C 608.992188 175.582031 611.550781 180.132812 612.691406 184.402344 C 613.828125 199.195312 614.683594 211.714844 613.542969 216.550781 C 613.542969 216.835938 613.542969 216.835938 613.542969 217.121094 C 610.699219 235.042969 609.84375 253.820312 611.269531 272.3125 C 606.429688 257.234375 600.457031 242.726562 593.914062 228.5 C 593.628906 213.421875 590.78125 198.34375 585.09375 184.402344 C 578.832031 192.367188 576.558594 203.464844 579.402344 213.421875 C 581.394531 220.25 585.660156 226.507812 591.636719 230.777344 C 596.1875 241.019531 600.742188 251.261719 604.722656 261.789062 C 603.015625 260.082031 601.023438 258.375 598.75 256.667969 C 596.757812 251.546875 593.628906 246.707031 590.214844 242.15625 C 584.523438 235.042969 577.695312 228.785156 572.859375 221.101562 C 570.015625 231.34375 573.144531 242.726562 580.539062 250.121094 C 585.09375 254.390625 590.78125 257.234375 597.042969 258.089844 C 600.742188 260.933594 603.871094 263.777344 606.429688 267.191406 C 608.707031 274.019531 610.699219 280.851562 612.40625 287.679688 C 614.964844 298.773438 616.390625 310.4375 616.390625 321.820312 C 615.25 319.257812 613.257812 316.980469 610.984375 314.707031 C 609.277344 308.730469 606.429688 303.042969 602.730469 298.203125 C 596.757812 290.523438 588.507812 284.546875 579.117188 281.703125 C 582.246094 292.230469 585.660156 303.324219 593.914062 310.152344 C 598.179688 313.851562 603.871094 315.84375 609.5625 316.699219 C 613.542969 320.394531 615.535156 323.8125 616.105469 328.078125 C 615.535156 342.304688 612.691406 356.246094 607.570312 368.195312 C 603.871094 377.582031 601.308594 387.539062 601.308594 397.78125 C 601.308594 408.878906 603.300781 416.277344 605.578125 424.242188 C 605.863281 425.097656 606.144531 426.234375 606.429688 427.371094 C 603.300781 421.683594 599.601562 415.992188 595.902344 410.300781 C 595.335938 409.449219 594.765625 408.59375 594.195312 407.742188 C 593.058594 400.34375 590.78125 393.230469 587.367188 386.6875 C 579.117188 370.753906 574.566406 353.113281 573.710938 335.476562 C 570.867188 345.148438 568.023438 354.820312 567.453125 364.496094 C 566.882812 374.167969 568.023438 384.125 572.859375 392.660156 C 577.125 400.058594 583.953125 406.316406 592.773438 409.449219 C 593.058594 410.015625 593.628906 410.585938 593.914062 411.4375 C 599.886719 420.257812 605.863281 429.363281 608.992188 438.183594 C 610.414062 445.582031 611.550781 454.683594 611.550781 467.203125 L 611.550781 718.992188 C 611.550781 748.296875 587.652344 772.199219 558.347656 772.199219 L 193.039062 772.199219 C 163.734375 771.628906 139.835938 747.730469 139.835938 718.140625 L 139.835938 93.359375 C 139.835938 64.054688 163.734375 40.15625 193.039062 40.15625 L 558.917969 40.15625 C 588.222656 40.15625 612.121094 64.054688 612.121094 93.359375 C 612.121094 94.210938 612.691406 94.78125 613.542969 94.78125 C 614.398438 94.78125 614.964844 94.210938 614.964844 93.359375 C 614.964844 62.347656 589.929688 37.308594 558.917969 37.308594 L 193.039062 37.308594 C 162.027344 37.308594 136.992188 62.347656 136.992188 93.359375 L 136.992188 718.140625 C 136.992188 749.152344 162.027344 774.1875 193.039062 774.1875 L 558.917969 774.1875 C 589.929688 774.1875 614.964844 749.152344 614.964844 718.140625 L 614.964844 466.351562 C 614.964844 444.15625 611.550781 432.777344 608.707031 422.535156 C 606.429688 414.570312 604.441406 407.742188 604.441406 396.929688 C 604.722656 377.296875 613.828125 359.089844 623.21875 341.734375 C 626.347656 336.898438 630.046875 332.628906 634.3125 328.933594 C 638.582031 329.785156 643.132812 329.785156 647.402344 328.933594 C 653.660156 327.226562 659.066406 323.242188 663.046875 318.121094 C 667.03125 313 670.160156 307.308594 673.007812 301.617188 C 663.617188 304.75 654.511719 309.015625 645.976562 314.136719 C 643.132812 316.128906 640.003906 318.40625 637.15625 321.25 Z M 637.15625 321.25 " fill-opacity="1" fill-rule="nonzero"/></g></svg>